<svg width="24" height="24" viewBox="0 0 24 24" fill="none" xmlns="http://www.w3.org/2000/svg">
<g id="icon/content/where_to_vote_24px">
<path id="icon/content/where_to_vote_24px_2" fill-rule="evenodd" clip-rule="evenodd" d="M12 0.755005C7.59 0.755005 4 4.34501 4 8.755C4 14.325 10.96 22.095 11.26 22.425L12 23.245L12.74 22.425C13.04 22.095 20 14.325 20 8.755C20 4.34501 16.41 0.755005 12 0.755005ZM12 20.225C9.82 17.615 6 12.295 6 8.755C6 5.445 8.69 2.755 12 2.755C15.31 2.755 18 5.445 18 8.755C18 12.585 13.75 18.115 12 20.225ZM8.71 9.155L10.47 10.925L15.07 6.32501L16.48 7.74501L10.47 13.755L7.29 10.575L8.71 9.155Z" fill="#2B2B2B"/>
</g>
</svg>
