<svg width="16" height="22" viewBox="0 0 16 22" fill="none" xmlns="http://www.w3.org/2000/svg">
<path d="M3.975 2.9375C4.85 1.4125 6.73751 0.5625 8.65001 0.5625C12.425 0.5625 15.6125 3.475 15.6125 7.8875C15.6125 12.3 12.4375 15.175 8.65001 15.175C6.72501 15.175 4.8375 14.425 3.975 12.8625V21.6875H0.887512V0.875H3.975V2.95V2.9375ZM8.2625 12.2125C10.575 12.2125 12.4625 10.5375 12.4625 7.95C12.4625 5.3625 10.575 3.575 8.2625 3.575C5.95 3.575 4.00001 5.225 4.00001 7.95C4.00001 10.675 6.1 12.2125 8.2625 12.2125Z" fill="#3B3B3B"/>
</svg>
