<svg width="24" height="24" viewBox="0 0 24 24" fill="none" xmlns="http://www.w3.org/2000/svg">
<g id="icon/content/attribution_24px">
<path id="icon/content/attribution_24px_2" fill-rule="evenodd" clip-rule="evenodd" d="M2 12C2 6.47 6.47 2 12 2C17.52 2 22 6.48 22 12C22 17.52 17.53 22 12 22C6.47 22 2 17.53 2 12ZM9.25 9.88C9.25 8.96 11.09 8.5 12 8.5C12.91 8.5 14.75 8.97 14.75 9.88V14.5H13.25V19H10.75V14.5H9.25V9.88ZM12 20C7.58 20 4 16.42 4 12C4 7.58 7.58 4 12 4C16.42 4 20 7.58 20 12C20 16.42 16.42 20 12 20ZM10.5 6.5C10.5 5.67157 11.1716 5 12 5C12.8284 5 13.5 5.67157 13.5 6.5C13.5 7.32843 12.8284 8 12 8C11.1716 8 10.5 7.32843 10.5 6.5Z" fill="#2B2B2B"/>
</g>
</svg>
