<svg width="24" height="24" viewBox="0 0 24 24" fill="none" xmlns="http://www.w3.org/2000/svg">
<g id="icon/content/backspace_24px">
<path id="icon/content/backspace_24px_2" fill-rule="evenodd" clip-rule="evenodd" d="M22 3H7C6.31 3 5.77 3.35 5.41 3.88L0 12L5.41 20.11C5.77 20.64 6.31 21 7 21H22C23.1 21 24 20.1 24 19V5C24 3.9 23.1 3 22 3ZM22 19H7.07L2.4 12L7.06 5H22V19ZM14 13.41L10.41 17L9 15.59L12.59 12L9 8.41L10.41 7L14 10.59L17.59 7L19 8.41L15.41 12L19 15.59L17.59 17L14 13.41Z" fill="#2B2B2B"/>
</g>
</svg>
