<svg width="16" height="22" viewBox="0 0 16 22" fill="none" xmlns="http://www.w3.org/2000/svg">
<path d="M3.38749 2.9375C4.26249 1.4125 6.14999 0.5625 8.06249 0.5625C11.8375 0.5625 15.025 3.475 15.025 7.8875C15.025 12.3 11.85 15.175 8.06249 15.175C6.13749 15.175 4.24999 14.425 3.38749 12.8625V21.6875H0.299988V0.875H3.38749V2.95V2.9375ZM7.67499 12.2125C9.98749 12.2125 11.875 10.5375 11.875 7.95C11.875 5.3625 9.98749 3.575 7.67499 3.575C5.36249 3.575 3.41249 5.225 3.41249 7.95C3.41249 10.675 5.51249 12.2125 7.67499 12.2125Z" fill="#3B3B3B"/>
</svg>
