<svg width="24" height="24" viewBox="0 0 24 24" fill="none" xmlns="http://www.w3.org/2000/svg">
<g id="icon/content/weekend_24px">
<path id="icon/content/weekend_24px_2" fill-rule="evenodd" clip-rule="evenodd" d="M21 9V7C21 5.35 19.65 4 18 4H6C4.35 4 3 5.35 3 7V9C1.35 9 0 10.35 0 12V17C0 18.65 1.35 20 3 20H21C22.65 20 24 18.65 24 17V12C24 10.35 22.65 9 21 9ZM5 7C5 6.45 5.45 6 6 6H18C18.55 6 19 6.45 19 7V9.78C18.39 10.33 18 11.12 18 12V14H6V12C6 11.12 5.61 10.33 5 9.78V7ZM21 18C21.55 18 22 17.55 22 17V12C22 11.45 21.55 11 21 11C20.45 11 20 11.45 20 12V16H4V12C4 11.45 3.55 11 3 11C2.45 11 2 11.45 2 12V17C2 17.55 2.45 18 3 18H21Z" fill="#2B2B2B"/>
</g>
</svg>
