<svg width="24" height="24" viewBox="0 0 24 24" fill="none" xmlns="http://www.w3.org/2000/svg">
<g id="icon/content/move_to_inbox_24px">
<path id="icon/content/move_to_inbox_24px_2" fill-rule="evenodd" clip-rule="evenodd" d="M4.99 3H19C20.1 3 21 3.9 21 5V19C21 20.1 20.1 21 19 21H4.99C3.88 21 3 20.1 3 19V5C3 3.9 3.88 3 4.99 3ZM13.45 9H16L12 13L8 9H10.55V6H13.45V9ZM5 19V16H8.56C9.25 17.19 10.53 18 12.01 18C13.49 18 14.76 17.19 15.46 16H19V19H5ZM14.01 14H19V5H4.99L5 14H10.01C10.01 15.1 10.91 16 12.01 16C13.11 16 14.01 15.1 14.01 14Z" fill="#2B2B2B"/>
</g>
</svg>
