<svg width="24" height="24" viewBox="0 0 24 24" fill="none" xmlns="http://www.w3.org/2000/svg">
<g id="icon/content/how_to_vote_24px">
<path id="icon/content/how_to_vote_24px_2" fill-rule="evenodd" clip-rule="evenodd" d="M11.34 15.0206C11.73 15.4106 12.36 15.4106 12.75 15.0206L19.11 8.66064C19.5 8.27064 19.5 7.64064 19.11 7.25064L14.16 2.30064C13.78 1.90064 13.15 1.90064 12.76 2.29064L6.39 8.66064C6 9.05064 6 9.68064 6.39 10.0706L11.34 15.0206ZM17.32 13.0006H18L21 16.0006V20.0006C21 21.1106 20.1 22.0006 19 22.0006H4.99C3.89 22.0006 3 21.1006 3 20.0006V16.0006L6 13.0006H6.83L8.83 15.0006H6.78L5 17.0006H19L17.23 15.0006H15.32L17.32 13.0006ZM5 20.0006H19V19.0006H5V20.0006ZM17 7.95064L13.46 4.41064L8.51 9.36064L12.05 12.9006L17 7.95064Z" fill="#2B2B2B"/>
</g>
</svg>
