<svg width="24" height="24" viewBox="0 0 24 24" fill="none" xmlns="http://www.w3.org/2000/svg">
<g id="icon/content/report_off_24px">
<path id="icon/content/report_off_24px_2" fill-rule="evenodd" clip-rule="evenodd" d="M2.69999 1.29001L1.28999 2.70001L4.92999 6.34001L3.28999 7.98001V15.44L8.55999 20.71H16.02L17.66 19.07L21.3 22.71L22.71 21.3L2.69999 1.29001ZM9.38999 4.71001H15.19L19.29 8.81001V14.61L19.07 14.83L20.49 16.24L21.29 15.44V7.98001L16.02 2.71001H8.55999L7.75999 3.51001L9.16999 4.93001L9.38999 4.71001ZM12.29 14.71C11.7377 14.71 11.29 15.1577 11.29 15.71C11.29 16.2623 11.7377 16.71 12.29 16.71C12.8423 16.71 13.29 16.2623 13.29 15.71C13.29 15.1577 12.8423 14.71 12.29 14.71ZM13.29 6.71001V9.04001L11.29 7.04001V6.71001H13.29ZM9.38999 18.71H15.19L16.24 17.66L6.33999 7.76001L5.28999 8.81001V14.61L9.38999 18.71Z" fill="#2B2B2B"/>
</g>
</svg>
