<svg width="24" height="24" viewBox="0 0 24 24" fill="none" xmlns="http://www.w3.org/2000/svg">
<g id="icon/content/link_off_24px">
<path id="icon/content/link_off_24px_2" fill-rule="evenodd" clip-rule="evenodd" d="M5.11 7.445L2 4.335L3.41 2.925L20.15 19.665L18.74 21.075L14.73 17.065H13V15.335L10.73 13.065H8V11.065H8.73L6.66 8.995C5.11 9.165 3.9 10.475 3.9 12.065C3.9 13.775 5.29 15.165 7 15.165H11V17.065H7C4.24 17.065 2 14.825 2 12.065C2 9.975 3.29 8.185 5.11 7.445ZM17 7.065H13V8.965H17C18.71 8.965 20.1 10.355 20.1 12.065C20.1 13.335 19.33 14.435 18.23 14.905L19.63 16.305C21.05 15.425 22 13.855 22 12.065C22 9.305 19.76 7.065 17 7.065ZM14.39 11.065L16 12.675V11.065H14.39Z" fill="#2B2B2B"/>
</g>
</svg>
