<svg width="24" height="24" viewBox="0 0 24 24" fill="none" xmlns="http://www.w3.org/2000/svg">
<g id="icon/content/gesture_24px">
<path id="icon/content/gesture_24px_2" fill-rule="evenodd" clip-rule="evenodd" d="M6.38 5.67999C6.07 5.54999 5.37 6.18999 4.67 6.89999L2.92 5.18999C3.14 4.91999 3.44 4.61999 3.8 4.25999C4.05 4.00999 5.2 3.00999 6.52 3.00999C7.39 3.00999 9.03 3.69999 9.03 5.86999C9.03 7.22999 8.51 8.00999 7.73 9.14999C7.28 9.80999 6.23 11.58 5.88 12.67C5.52 13.76 5.79 14.59 6.24 14.59C6.65221 14.59 7.06442 14.0938 7.31806 13.7884C7.329 13.7752 7.33965 13.7624 7.35 13.75C7.58 13.51 9.06 11.76 9.64 11.03C10.4 10.1 12.33 8.18999 14.58 8.18999C17.52 8.18999 18.46 10.74 18.61 12.39H21.08V14.89H18.62C18.22 19.66 15.56 20.99 13.93 20.99C12.16 20.99 10.72 19.6 10.72 17.9C10.72 16.2 12.32 13.17 16.1 12.53C16.0929 12.4797 16.0862 12.4284 16.0794 12.3765C15.9807 11.6239 15.8649 10.74 14.34 10.74C13.09 10.74 11.47 12.69 10.26 14.18L10.2473 14.1956C9.1433 15.5583 8.26593 16.6412 7.2 16.95C6.3 17.22 5.31 17.05 4.56 16.49C3.7 15.85 3.22 14.79 3.22 13.51C3.22 11.4026 5.19929 8.4989 5.87571 7.50657C5.97604 7.35938 6.04771 7.25425 6.08 7.19999C6.38 6.70999 6.88 5.87999 6.38 5.67999ZM13.22 17.84C13.22 18.3 13.65 18.56 13.96 18.56C14.66 18.56 15.79 17.77 16.09 15.08C13.95 15.64 13.22 17.24 13.22 17.84Z" fill="#2B2B2B"/>
</g>
</svg>
