<svg width="15" height="16" viewBox="0 0 15 16" fill="none" xmlns="http://www.w3.org/2000/svg">
<path d="M14.275 8.97495H3.14998C3.47498 11.1375 5.16248 12.4875 7.43748 12.4875C8.99998 12.4875 10.525 11.7625 11.25 10.475L13.775 11.5875C12.575 14.075 9.89998 15.1874 7.29998 15.1874C3.33748 15.1874 0.0999756 12.275 0.0999756 7.83745C0.0999756 3.39995 3.33748 0.574951 7.29998 0.574951C11.2625 0.574951 14.325 3.39995 14.325 7.83745C14.325 8.16245 14.325 8.64995 14.3 8.97495H14.275ZM11.275 6.72495C10.95 4.53745 9.41248 3.27495 7.28748 3.27495C5.16248 3.27495 3.47498 4.56245 3.14998 6.72495H11.275Z" fill="#3B3B3B"/>
</svg>
